<svg width="548" height="71" viewBox="0 0 548 71" fill="none" xmlns="http://www.w3.org/2000/svg">
<path d="M26.8828 26.2344C26.3359 23.875 25 22.2266 22.875 21.2891C21.6875 20.7734 20.3672 20.5156 18.9141 20.5156C16.1328 20.5156 13.8438 21.5703 12.0469 23.6797C10.2656 25.7734 9.375 28.9297 9.375 33.1484C9.375 37.3984 10.3438 40.4062 12.2812 42.1719C14.2188 43.9375 16.4219 44.8203 18.8906 44.8203C21.3125 44.8203 23.2969 44.125 24.8438 42.7344C26.3906 41.3281 27.3438 39.4922 27.7031 37.2266H19.7109V31.4609H34.1016V50H29.3203L28.5938 45.6875C27.2031 47.3281 25.9531 48.4844 24.8438 49.1562C22.9375 50.3281 20.5938 50.9141 17.8125 50.9141C13.2344 50.9141 9.48438 49.3281 6.5625 46.1562C3.51562 42.9688 1.99219 38.6094 1.99219 33.0781C1.99219 27.4844 3.53125 23 6.60938 19.625C9.6875 16.25 13.7578 14.5625 18.8203 14.5625C23.2109 14.5625 26.7344 15.6797 29.3906 17.9141C32.0625 20.1328 33.5938 22.9062 33.9844 26.2344H26.8828ZM50.5547 29.2812C49.0078 29.2812 47.8047 29.7656 46.9453 30.7344C46.1016 31.7031 45.5703 33.0156 45.3516 34.6719H55.7344C55.625 32.9062 55.0859 31.5703 54.1172 30.6641C53.1641 29.7422 51.9766 29.2812 50.5547 29.2812ZM50.5547 23.7734C52.6797 23.7734 54.5938 24.1719 56.2969 24.9688C58 25.7656 59.4062 27.0234 60.5156 28.7422C61.5156 30.2578 62.1641 32.0156 62.4609 34.0156C62.6328 35.1875 62.7031 36.875 62.6719 39.0781H45.1875C45.2812 41.6406 46.0859 43.4375 47.6016 44.4688C48.5234 45.1094 49.6328 45.4297 50.9297 45.4297C52.3047 45.4297 53.4219 45.0391 54.2812 44.2578C54.75 43.8359 55.1641 43.25 55.5234 42.5H62.3438C62.1719 44.0156 61.3828 45.5547 59.9766 47.1172C57.7891 49.6016 54.7266 50.8438 50.7891 50.8438C47.5391 50.8438 44.6719 49.7969 42.1875 47.7031C39.7031 45.6094 38.4609 42.2031 38.4609 37.4844C38.4609 33.0625 39.5781 29.6719 41.8125 27.3125C44.0625 24.9531 46.9766 23.7734 50.5547 23.7734ZM81.3516 23.8438C83.9922 23.8438 86.1484 24.5391 87.8203 25.9297C89.5078 27.3047 90.3516 29.5938 90.3516 32.7969V50H83.5078V34.4609C83.5078 33.1172 83.3281 32.0859 82.9688 31.3672C82.3125 30.0547 81.0625 29.3984 79.2188 29.3984C76.9531 29.3984 75.3984 30.3594 74.5547 32.2812C74.1172 33.2969 73.8984 34.5938 73.8984 36.1719V50H67.2422V24.5H73.6875V28.2266C74.5469 26.9141 75.3594 25.9688 76.125 25.3906C77.5 24.3594 79.2422 23.8438 81.3516 23.8438ZM106.617 29.2812C105.07 29.2812 103.867 29.7656 103.008 30.7344C102.164 31.7031 101.633 33.0156 101.414 34.6719H111.797C111.688 32.9062 111.148 31.5703 110.18 30.6641C109.227 29.7422 108.039 29.2812 106.617 29.2812ZM106.617 23.7734C108.742 23.7734 110.656 24.1719 112.359 24.9688C114.062 25.7656 115.469 27.0234 116.578 28.7422C117.578 30.2578 118.227 32.0156 118.523 34.0156C118.695 35.1875 118.766 36.875 118.734 39.0781H101.25C101.344 41.6406 102.148 43.4375 103.664 44.4688C104.586 45.1094 105.695 45.4297 106.992 45.4297C108.367 45.4297 109.484 45.0391 110.344 44.2578C110.812 43.8359 111.227 43.25 111.586 42.5H118.406C118.234 44.0156 117.445 45.5547 116.039 47.1172C113.852 49.6016 110.789 50.8438 106.852 50.8438C103.602 50.8438 100.734 49.7969 98.25 47.7031C95.7656 45.6094 94.5234 42.2031 94.5234 37.4844C94.5234 33.0625 95.6406 29.6719 97.875 27.3125C100.125 24.9531 103.039 23.7734 106.617 23.7734ZM137.133 23.8438C137.258 23.8438 137.359 23.8516 137.438 23.8672C137.531 23.8672 137.727 23.875 138.023 23.8906V30.7344C137.602 30.6875 137.227 30.6562 136.898 30.6406C136.57 30.625 136.305 30.6172 136.102 30.6172C133.414 30.6172 131.609 31.4922 130.688 33.2422C130.172 34.2266 129.914 35.7422 129.914 37.7891V50H123.188V24.4531H129.562V28.9062C130.594 27.2031 131.492 26.0391 132.258 25.4141C133.508 24.3672 135.133 23.8438 137.133 23.8438ZM156.047 37.5781C155.625 37.8438 155.195 38.0625 154.758 38.2344C154.336 38.3906 153.75 38.5391 153 38.6797L151.5 38.9609C150.094 39.2109 149.086 39.5156 148.477 39.875C147.445 40.4844 146.93 41.4297 146.93 42.7109C146.93 43.8516 147.242 44.6797 147.867 45.1953C148.508 45.6953 149.281 45.9453 150.188 45.9453C151.625 45.9453 152.945 45.5234 154.148 44.6797C155.367 43.8359 156 42.2969 156.047 40.0625V37.5781ZM151.992 34.4609C153.227 34.3047 154.109 34.1094 154.641 33.875C155.594 33.4688 156.07 32.8359 156.07 31.9766C156.07 30.9297 155.703 30.2109 154.969 29.8203C154.25 29.4141 153.188 29.2109 151.781 29.2109C150.203 29.2109 149.086 29.6016 148.43 30.3828C147.961 30.9609 147.648 31.7422 147.492 32.7266H141.047C141.188 30.4922 141.812 28.6562 142.922 27.2188C144.688 24.9688 147.719 23.8438 152.016 23.8438C154.812 23.8438 157.297 24.3984 159.469 25.5078C161.641 26.6172 162.727 28.7109 162.727 31.7891V43.5078C162.727 44.3203 162.742 45.3047 162.773 46.4609C162.82 47.3359 162.953 47.9297 163.172 48.2422C163.391 48.5547 163.719 48.8125 164.156 49.0156V50H156.891C156.688 49.4844 156.547 49 156.469 48.5469C156.391 48.0938 156.328 47.5781 156.281 47C155.359 48 154.297 48.8516 153.094 49.5547C151.656 50.3828 150.031 50.7969 148.219 50.7969C145.906 50.7969 143.992 50.1406 142.477 48.8281C140.977 47.5 140.227 45.625 140.227 43.2031C140.227 40.0625 141.438 37.7891 143.859 36.3828C145.188 35.6172 147.141 35.0703 149.719 34.7422L151.992 34.4609ZM166.055 29.4453V24.6875H169.617V17.5625H176.227V24.6875H180.375V29.4453H176.227V42.9453C176.227 43.9922 176.359 44.6484 176.625 44.9141C176.891 45.1641 177.703 45.2891 179.062 45.2891C179.266 45.2891 179.477 45.2891 179.695 45.2891C179.93 45.2734 180.156 45.2578 180.375 45.2422V50.2344L177.211 50.3516C174.055 50.4609 171.898 49.9141 170.742 48.7109C169.992 47.9453 169.617 46.7656 169.617 45.1719V29.4453H166.055ZM194.742 29.2812C193.195 29.2812 191.992 29.7656 191.133 30.7344C190.289 31.7031 189.758 33.0156 189.539 34.6719H199.922C199.812 32.9062 199.273 31.5703 198.305 30.6641C197.352 29.7422 196.164 29.2812 194.742 29.2812ZM194.742 23.7734C196.867 23.7734 198.781 24.1719 200.484 24.9688C202.188 25.7656 203.594 27.0234 204.703 28.7422C205.703 30.2578 206.352 32.0156 206.648 34.0156C206.82 35.1875 206.891 36.875 206.859 39.0781H189.375C189.469 41.6406 190.273 43.4375 191.789 44.4688C192.711 45.1094 193.82 45.4297 195.117 45.4297C196.492 45.4297 197.609 45.0391 198.469 44.2578C198.938 43.8359 199.352 43.25 199.711 42.5H206.531C206.359 44.0156 205.57 45.5547 204.164 47.1172C201.977 49.6016 198.914 50.8438 194.977 50.8438C191.727 50.8438 188.859 49.7969 186.375 47.7031C183.891 45.6094 182.648 42.2031 182.648 37.4844C182.648 33.0625 183.766 29.6719 186 27.3125C188.25 24.9531 191.164 23.7734 194.742 23.7734ZM211.266 43.0156H218.367V50H211.266V43.0156ZM237.141 33.0078C237.141 26.9766 238.758 22.3281 241.992 19.0625C244.805 16.2188 248.383 14.7969 252.727 14.7969C258.539 14.7969 262.789 16.7031 265.477 20.5156C266.961 22.6562 267.758 24.8047 267.867 26.9609H260.648C260.18 25.3047 259.578 24.0547 258.844 23.2109C257.531 21.7109 255.586 20.9609 253.008 20.9609C250.383 20.9609 248.312 22.0234 246.797 24.1484C245.281 26.2578 244.523 29.25 244.523 33.125C244.523 37 245.32 39.9062 246.914 41.8438C248.523 43.7656 250.562 44.7266 253.031 44.7266C255.562 44.7266 257.492 43.8984 258.82 42.2422C259.555 41.3516 260.164 40.0156 260.648 38.2344H267.797C267.172 42 265.57 45.0625 262.992 47.4219C260.43 49.7812 257.141 50.9609 253.125 50.9609C248.156 50.9609 244.25 49.3672 241.406 46.1797C238.562 42.9766 237.141 38.5859 237.141 33.0078ZM279.609 50H272.93V15.4531H279.609V50ZM296.227 29.2812C294.68 29.2812 293.477 29.7656 292.617 30.7344C291.773 31.7031 291.242 33.0156 291.023 34.6719H301.406C301.297 32.9062 300.758 31.5703 299.789 30.6641C298.836 29.7422 297.648 29.2812 296.227 29.2812ZM296.227 23.7734C298.352 23.7734 300.266 24.1719 301.969 24.9688C303.672 25.7656 305.078 27.0234 306.188 28.7422C307.188 30.2578 307.836 32.0156 308.133 34.0156C308.305 35.1875 308.375 36.875 308.344 39.0781H290.859C290.953 41.6406 291.758 43.4375 293.273 44.4688C294.195 45.1094 295.305 45.4297 296.602 45.4297C297.977 45.4297 299.094 45.0391 299.953 44.2578C300.422 43.8359 300.836 43.25 301.195 42.5H308.016C307.844 44.0156 307.055 45.5547 305.648 47.1172C303.461 49.6016 300.398 50.8438 296.461 50.8438C293.211 50.8438 290.344 49.7969 287.859 47.7031C285.375 45.6094 284.133 42.2031 284.133 37.4844C284.133 33.0625 285.25 29.6719 287.484 27.3125C289.734 24.9531 292.648 23.7734 296.227 23.7734ZM326.953 37.5781C326.531 37.8438 326.102 38.0625 325.664 38.2344C325.242 38.3906 324.656 38.5391 323.906 38.6797L322.406 38.9609C321 39.2109 319.992 39.5156 319.383 39.875C318.352 40.4844 317.836 41.4297 317.836 42.7109C317.836 43.8516 318.148 44.6797 318.773 45.1953C319.414 45.6953 320.188 45.9453 321.094 45.9453C322.531 45.9453 323.852 45.5234 325.055 44.6797C326.273 43.8359 326.906 42.2969 326.953 40.0625V37.5781ZM322.898 34.4609C324.133 34.3047 325.016 34.1094 325.547 33.875C326.5 33.4688 326.977 32.8359 326.977 31.9766C326.977 30.9297 326.609 30.2109 325.875 29.8203C325.156 29.4141 324.094 29.2109 322.688 29.2109C321.109 29.2109 319.992 29.6016 319.336 30.3828C318.867 30.9609 318.555 31.7422 318.398 32.7266H311.953C312.094 30.4922 312.719 28.6562 313.828 27.2188C315.594 24.9688 318.625 23.8438 322.922 23.8438C325.719 23.8438 328.203 24.3984 330.375 25.5078C332.547 26.6172 333.633 28.7109 333.633 31.7891V43.5078C333.633 44.3203 333.648 45.3047 333.68 46.4609C333.727 47.3359 333.859 47.9297 334.078 48.2422C334.297 48.5547 334.625 48.8125 335.062 49.0156V50H327.797C327.594 49.4844 327.453 49 327.375 48.5469C327.297 48.0938 327.234 47.5781 327.188 47C326.266 48 325.203 48.8516 324 49.5547C322.562 50.3828 320.938 50.7969 319.125 50.7969C316.812 50.7969 314.898 50.1406 313.383 48.8281C311.883 47.5 311.133 45.625 311.133 43.2031C311.133 40.0625 312.344 37.7891 314.766 36.3828C316.094 35.6172 318.047 35.0703 320.625 34.7422L322.898 34.4609ZM353.742 23.8438C356.383 23.8438 358.539 24.5391 360.211 25.9297C361.898 27.3047 362.742 29.5938 362.742 32.7969V50H355.898V34.4609C355.898 33.1172 355.719 32.0859 355.359 31.3672C354.703 30.0547 353.453 29.3984 351.609 29.3984C349.344 29.3984 347.789 30.3594 346.945 32.2812C346.508 33.2969 346.289 34.5938 346.289 36.1719V50H339.633V24.5H346.078V28.2266C346.938 26.9141 347.75 25.9688 348.516 25.3906C349.891 24.3594 351.633 23.8438 353.742 23.8438ZM368.812 43.0156H375.914V50H368.812V43.0156ZM401.414 39.3359C401.633 40.9141 402.062 42.0938 402.703 42.875C403.875 44.2969 405.883 45.0078 408.727 45.0078C410.43 45.0078 411.812 44.8203 412.875 44.4453C414.891 43.7266 415.898 42.3906 415.898 40.4375C415.898 39.2969 415.398 38.4141 414.398 37.7891C413.398 37.1797 411.828 36.6406 409.688 36.1719L406.031 35.3516C402.438 34.5391 399.953 33.6562 398.578 32.7031C396.25 31.1094 395.086 28.6172 395.086 25.2266C395.086 22.1328 396.211 19.5625 398.461 17.5156C400.711 15.4688 404.016 14.4453 408.375 14.4453C412.016 14.4453 415.117 15.4141 417.68 17.3516C420.258 19.2734 421.609 22.0703 421.734 25.7422H414.797C414.672 23.6641 413.766 22.1875 412.078 21.3125C410.953 20.7344 409.555 20.4453 407.883 20.4453C406.023 20.4453 404.539 20.8203 403.43 21.5703C402.32 22.3203 401.766 23.3672 401.766 24.7109C401.766 25.9453 402.312 26.8672 403.406 27.4766C404.109 27.8828 405.609 28.3594 407.906 28.9062L413.859 30.3359C416.469 30.9609 418.438 31.7969 419.766 32.8438C421.828 34.4688 422.859 36.8203 422.859 39.8984C422.859 43.0547 421.648 45.6797 419.227 47.7734C416.82 49.8516 413.414 50.8906 409.008 50.8906C404.508 50.8906 400.969 49.8672 398.391 47.8203C395.812 45.7578 394.523 42.9297 394.523 39.3359H401.414ZM437.742 29.2812C436.195 29.2812 434.992 29.7656 434.133 30.7344C433.289 31.7031 432.758 33.0156 432.539 34.6719H442.922C442.812 32.9062 442.273 31.5703 441.305 30.6641C440.352 29.7422 439.164 29.2812 437.742 29.2812ZM437.742 23.7734C439.867 23.7734 441.781 24.1719 443.484 24.9688C445.188 25.7656 446.594 27.0234 447.703 28.7422C448.703 30.2578 449.352 32.0156 449.648 34.0156C449.82 35.1875 449.891 36.875 449.859 39.0781H432.375C432.469 41.6406 433.273 43.4375 434.789 44.4688C435.711 45.1094 436.82 45.4297 438.117 45.4297C439.492 45.4297 440.609 45.0391 441.469 44.2578C441.938 43.8359 442.352 43.25 442.711 42.5H449.531C449.359 44.0156 448.57 45.5547 447.164 47.1172C444.977 49.6016 441.914 50.8438 437.977 50.8438C434.727 50.8438 431.859 49.7969 429.375 47.7031C426.891 45.6094 425.648 42.2031 425.648 37.4844C425.648 33.0625 426.766 29.6719 429 27.3125C431.25 24.9531 434.164 23.7734 437.742 23.7734ZM468.539 23.8438C471.18 23.8438 473.336 24.5391 475.008 25.9297C476.695 27.3047 477.539 29.5938 477.539 32.7969V50H470.695V34.4609C470.695 33.1172 470.516 32.0859 470.156 31.3672C469.5 30.0547 468.25 29.3984 466.406 29.3984C464.141 29.3984 462.586 30.3594 461.742 32.2812C461.305 33.2969 461.086 34.5938 461.086 36.1719V50H454.43V24.5H460.875V28.2266C461.734 26.9141 462.547 25.9688 463.312 25.3906C464.688 24.3594 466.43 23.8438 468.539 23.8438ZM493.148 23.8438C494.695 23.8438 496.07 24.1875 497.273 24.875C498.477 25.5469 499.453 26.4844 500.203 27.6875V15.5H506.977V50H500.484V46.4609C499.531 47.9766 498.445 49.0781 497.227 49.7656C496.008 50.4531 494.492 50.7969 492.68 50.7969C489.695 50.7969 487.18 49.5938 485.133 47.1875C483.102 44.7656 482.086 41.6641 482.086 37.8828C482.086 33.5234 483.086 30.0938 485.086 27.5938C487.102 25.0938 489.789 23.8438 493.148 23.8438ZM494.602 45.1719C496.492 45.1719 497.93 44.4688 498.914 43.0625C499.898 41.6562 500.391 39.8359 500.391 37.6016C500.391 34.4766 499.602 32.2422 498.023 30.8984C497.055 30.0859 495.93 29.6797 494.648 29.6797C492.695 29.6797 491.258 30.4219 490.336 31.9062C489.43 33.375 488.977 35.2031 488.977 37.3906C488.977 39.75 489.438 41.6406 490.359 43.0625C491.297 44.4688 492.711 45.1719 494.602 45.1719ZM512.953 43.0156H520.055V50H512.953V43.0156Z" fill="black"/>
<path d="M208.025 4.31824C208.259 3.27869 209.741 3.27869 209.975 4.31824L210.15 5.08981C210.302 5.76354 211.075 6.08379 211.659 5.715L212.328 5.29266C213.229 4.72363 214.276 5.771 213.707 6.67212L213.285 7.34094C212.916 7.92495 213.236 8.6981 213.91 8.85029L214.682 9.02458C215.721 9.25939 215.721 10.7406 214.682 10.9754L213.91 11.1497C213.236 11.3019 212.916 12.075 213.285 12.6591L213.707 13.3279C214.276 14.229 213.229 15.2764 212.328 14.7073L211.659 14.285C211.075 13.9162 210.302 14.2365 210.15 14.9102L209.975 15.6818C209.741 16.7213 208.259 16.7213 208.025 15.6818L207.85 14.9102C207.698 14.2365 206.925 13.9162 206.341 14.285L205.672 14.7073C204.771 15.2764 203.724 14.229 204.293 13.3279L204.715 12.6591C205.084 12.075 204.764 11.3019 204.09 11.1497L203.318 10.9754C202.279 10.7406 202.279 9.25939 203.318 9.02458L204.09 8.85029C204.764 8.6981 205.084 7.92495 204.715 7.34094L204.293 6.67212C203.724 5.771 204.771 4.72363 205.672 5.29266L206.341 5.715C206.925 6.08379 207.698 5.76354 207.85 5.08981L208.025 4.31824Z" fill="#E11D48"/>
<path d="M547.551 59L536.004 47.453L524.457 59L536.004 70.547L547.551 59ZM415 61H536.004V57H415V61Z" fill="#E11D48"/>
</svg>
